<svg xmlns="http://www.w3.org/2000/svg" viewBox="0 0 400 160"><rect x="50" y="45" width="300" height="70" rx="4" fill="#f5f5f5" stroke="#111" stroke-width="2"/><rect x="50.0" y="18.0" width="40.0" height="22.0" rx="2" fill="#fff" stroke="#111" stroke-width="1.2"/><line x1="50.0" y1="18.0" x2="90.0" y2="18.0" stroke="#111" stroke-width="3" stroke-linecap="round"/><rect x="90.0" y="18.0" width="40.0" height="22.0" rx="2" fill="#fff" stroke="#111" stroke-width="1.2"/><line x1="90.0" y1="18.0" x2="130.0" y2="18.0" stroke="#111" stroke-width="3" stroke-linecap="round"/><rect x="150.0" y="18.0" width="40.0" height="22.0" rx="2" fill="#fff" stroke="#111" stroke-width="1.2"/><line x1="150.0" y1="18.0" x2="190.0" y2="18.0" stroke="#111" stroke-width="3" stroke-linecap="round"/><rect x="210.0" y="18.0" width="40.0" height="22.0" rx="2" fill="#fff" stroke="#111" stroke-width="1.2"/><line x1="210.0" y1="18.0" x2="250.0" y2="18.0" stroke="#111" stroke-width="3" stroke-linecap="round"/><rect x="270.0" y="18.0" width="40.0" height="22.0" rx="2" fill="#fff" stroke="#111" stroke-width="1.2"/><line x1="270.0" y1="18.0" x2="310.0" y2="18.0" stroke="#111" stroke-width="3" stroke-linecap="round"/><rect x="310.0" y="18.0" width="40.0" height="22.0" rx="2" fill="#fff" stroke="#111" stroke-width="1.2"/><line x1="310.0" y1="18.0" x2="350.0" y2="18.0" stroke="#111" stroke-width="3" stroke-linecap="round"/><rect x="50.0" y="120.0" width="40.0" height="22.0" rx="2" fill="#fff" stroke="#111" stroke-width="1.2"/><line x1="50.0" y1="142.0" x2="90.0" y2="142.0" stroke="#111" stroke-width="3" stroke-linecap="round"/><rect x="90.0" y="120.0" width="40.0" height="22.0" rx="2" fill="#fff" stroke="#111" stroke-width="1.2"/><line x1="90.0" y1="142.0" x2="130.0" y2="142.0" stroke="#111" stroke-width="3" stroke-linecap="round"/><rect x="150.0" y="120.0" width="40.0" height="22.0" rx="2" fill="#fff" stroke="#111" stroke-width="1.2"/><line x1="150.0" y1="142.0" x2="190.0" y2="142.0" stroke="#111" stroke-width="3" stroke-linecap="round"/><rect x="210.0" y="120.0" width="40.0" height="22.0" rx="2" fill="#fff" stroke="#111" stroke-width="1.2"/><line x1="210.0" y1="142.0" x2="250.0" y2="142.0" stroke="#111" stroke-width="3" stroke-linecap="round"/><rect x="270.0" y="120.0" width="40.0" height="22.0" rx="2" fill="#fff" stroke="#111" stroke-width="1.2"/><line x1="270.0" y1="142.0" x2="310.0" y2="142.0" stroke="#111" stroke-width="3" stroke-linecap="round"/><rect x="310.0" y="120.0" width="40.0" height="22.0" rx="2" fill="#fff" stroke="#111" stroke-width="1.2"/><line x1="310.0" y1="142.0" x2="350.0" y2="142.0" stroke="#111" stroke-width="3" stroke-linecap="round"/></svg>