<svg xmlns="http://www.w3.org/2000/svg" viewBox="0 0 300 140"><rect x="50" y="35" width="200" height="70" rx="4" fill="#f5f5f5" stroke="#111" stroke-width="2"/><rect x="44.0" y="8.0" width="42.0" height="22.0" rx="2" fill="#fff" stroke="#111" stroke-width="1.2"/><line x1="44.0" y1="8.0" x2="86.0" y2="8.0" stroke="#111" stroke-width="3" stroke-linecap="round"/><rect x="95.0" y="8.0" width="42.0" height="22.0" rx="2" fill="#fff" stroke="#111" stroke-width="1.2"/><line x1="95.0" y1="8.0" x2="137.0" y2="8.0" stroke="#111" stroke-width="3" stroke-linecap="round"/><rect x="162.0" y="8.0" width="42.0" height="22.0" rx="2" fill="#fff" stroke="#111" stroke-width="1.2"/><line x1="162.0" y1="8.0" x2="204.0" y2="8.0" stroke="#111" stroke-width="3" stroke-linecap="round"/><rect x="214.0" y="8.0" width="42.0" height="22.0" rx="2" fill="#fff" stroke="#111" stroke-width="1.2"/><line x1="214.0" y1="8.0" x2="256.0" y2="8.0" stroke="#111" stroke-width="3" stroke-linecap="round"/><rect x="44.0" y="110.0" width="42.0" height="22.0" rx="2" fill="#fff" stroke="#111" stroke-width="1.2"/><line x1="44.0" y1="132.0" x2="86.0" y2="132.0" stroke="#111" stroke-width="3" stroke-linecap="round"/><rect x="95.0" y="110.0" width="42.0" height="22.0" rx="2" fill="#fff" stroke="#111" stroke-width="1.2"/><line x1="95.0" y1="132.0" x2="137.0" y2="132.0" stroke="#111" stroke-width="3" stroke-linecap="round"/><rect x="162.0" y="110.0" width="42.0" height="22.0" rx="2" fill="#fff" stroke="#111" stroke-width="1.2"/><line x1="162.0" y1="132.0" x2="204.0" y2="132.0" stroke="#111" stroke-width="3" stroke-linecap="round"/><rect x="214.0" y="110.0" width="42.0" height="22.0" rx="2" fill="#fff" stroke="#111" stroke-width="1.2"/><line x1="214.0" y1="132.0" x2="256.0" y2="132.0" stroke="#111" stroke-width="3" stroke-linecap="round"/></svg>